<mxfile host="Electron" agent="Mozilla/5.0 (Macintosh; Intel Mac OS X 10_15_7) AppleWebKit/537.36 (KHTML, like Gecko) draw.io/27.0.5 Chrome/134.0.6998.205 Electron/35.3.0 Safari/537.36" version="27.0.5">
  <diagram name="Страница — 1" id="SQ6EDc0tigbMfeZgz7qI">
    <mxGraphModel dx="2178" dy="2215" grid="1" gridSize="10" guides="1" tooltips="1" connect="1" arrows="1" fold="1" page="1" pageScale="1" pageWidth="827" pageHeight="1169" math="0" shadow="0">
      <root>
        <mxCell id="0" />
        <mxCell id="1" parent="0" />
        <mxCell id="virza3_7X7Todxq-LX90-29" value="" style="rounded=0;whiteSpace=wrap;html=1;fillColor=#B3B3B3;fontColor=#ffffff;strokeColor=#6F0000;" vertex="1" parent="1">
          <mxGeometry x="100" y="-200" width="930" height="960" as="geometry" />
        </mxCell>
        <mxCell id="virza3_7X7Todxq-LX90-1" value="" style="image;sketch=0;aspect=fixed;html=1;points=[];align=center;fontSize=12;image=img/lib/mscae/App_Service_Mobile_App.svg;" vertex="1" parent="1">
          <mxGeometry x="-280" y="260" width="81.6" height="120" as="geometry" />
        </mxCell>
        <mxCell id="virza3_7X7Todxq-LX90-2" value="&lt;font style=&quot;font-size: 23px;&quot;&gt;User&lt;/font&gt;" style="text;html=1;align=center;verticalAlign=middle;whiteSpace=wrap;rounded=0;" vertex="1" parent="1">
          <mxGeometry x="-310" y="380" width="130" height="50" as="geometry" />
        </mxCell>
        <mxCell id="virza3_7X7Todxq-LX90-3" value="&lt;font style=&quot;font-size: 23px;&quot;&gt;Swipe Service&lt;/font&gt;" style="rounded=0;whiteSpace=wrap;html=1;" vertex="1" parent="1">
          <mxGeometry x="240" y="40" width="160" height="100" as="geometry" />
        </mxCell>
        <mxCell id="virza3_7X7Todxq-LX90-5" value="" style="image;sketch=0;aspect=fixed;html=1;points=[];align=center;fontSize=12;image=img/lib/mscae/Azure_Database_for_PostgreSQL_servers.svg;" vertex="1" parent="1">
          <mxGeometry x="620" y="552.5" width="83.6" height="110" as="geometry" />
        </mxCell>
        <mxCell id="virza3_7X7Todxq-LX90-6" value="" style="image;sketch=0;aspect=fixed;html=1;points=[];align=center;fontSize=12;image=img/lib/mscae/WebHosting.svg;" vertex="1" parent="1">
          <mxGeometry x="210" y="100" width="70" height="70" as="geometry" />
        </mxCell>
        <mxCell id="virza3_7X7Todxq-LX90-7" value="&lt;font style=&quot;font-size: 23px;&quot;&gt;Notification Service&lt;/font&gt;" style="rounded=0;whiteSpace=wrap;html=1;" vertex="1" parent="1">
          <mxGeometry x="840" y="-135" width="160" height="100" as="geometry" />
        </mxCell>
        <mxCell id="virza3_7X7Todxq-LX90-8" value="" style="image;sketch=0;aspect=fixed;html=1;points=[];align=center;fontSize=12;image=img/lib/mscae/WebHosting.svg;" vertex="1" parent="1">
          <mxGeometry x="810" y="-75" width="70" height="70" as="geometry" />
        </mxCell>
        <mxCell id="virza3_7X7Todxq-LX90-9" value="&lt;font style=&quot;font-size: 23px;&quot;&gt;Profile Service&lt;/font&gt;" style="rounded=0;whiteSpace=wrap;html=1;" vertex="1" parent="1">
          <mxGeometry x="240" y="557.5" width="160" height="100" as="geometry" />
        </mxCell>
        <mxCell id="virza3_7X7Todxq-LX90-10" value="" style="image;sketch=0;aspect=fixed;html=1;points=[];align=center;fontSize=12;image=img/lib/mscae/WebHosting.svg;" vertex="1" parent="1">
          <mxGeometry x="210" y="617.5" width="70" height="70" as="geometry" />
        </mxCell>
        <mxCell id="virza3_7X7Todxq-LX90-11" value="&lt;font style=&quot;font-size: 23px;&quot;&gt;Deck Service&lt;/font&gt;" style="rounded=0;whiteSpace=wrap;html=1;" vertex="1" parent="1">
          <mxGeometry x="691.8" y="300" width="160" height="100" as="geometry" />
        </mxCell>
        <mxCell id="virza3_7X7Todxq-LX90-12" value="" style="image;sketch=0;aspect=fixed;html=1;points=[];align=center;fontSize=12;image=img/lib/mscae/WebHosting.svg;" vertex="1" parent="1">
          <mxGeometry x="661.8" y="360" width="70" height="70" as="geometry" />
        </mxCell>
        <mxCell id="virza3_7X7Todxq-LX90-13" value="" style="shape=flexArrow;endArrow=classic;html=1;rounded=0;entryX=0;entryY=0;entryDx=0;entryDy=0;exitX=1;exitY=0.75;exitDx=0;exitDy=0;fillColor=default;" edge="1" parent="1" source="virza3_7X7Todxq-LX90-15" target="virza3_7X7Todxq-LX90-9">
          <mxGeometry width="50" height="50" relative="1" as="geometry">
            <mxPoint x="240" y="370" as="sourcePoint" />
            <mxPoint x="690" y="390" as="targetPoint" />
          </mxGeometry>
        </mxCell>
        <mxCell id="virza3_7X7Todxq-LX90-14" value="" style="shape=flexArrow;endArrow=classic;html=1;rounded=0;exitX=1;exitY=0.25;exitDx=0;exitDy=0;fillColor=default;" edge="1" parent="1" source="virza3_7X7Todxq-LX90-15" target="virza3_7X7Todxq-LX90-6">
          <mxGeometry width="50" height="50" relative="1" as="geometry">
            <mxPoint x="220" y="320" as="sourcePoint" />
            <mxPoint x="690" y="390" as="targetPoint" />
          </mxGeometry>
        </mxCell>
        <mxCell id="virza3_7X7Todxq-LX90-15" value="&lt;font style=&quot;font-size: 23px;&quot;&gt;NGINX&lt;/font&gt;" style="rounded=0;whiteSpace=wrap;html=1;" vertex="1" parent="1">
          <mxGeometry x="-80" y="290" width="120" height="60" as="geometry" />
        </mxCell>
        <mxCell id="virza3_7X7Todxq-LX90-16" value="" style="shape=flexArrow;endArrow=classic;html=1;rounded=0;exitX=1.04;exitY=0.474;exitDx=0;exitDy=0;exitPerimeter=0;entryX=0;entryY=0.5;entryDx=0;entryDy=0;fillColor=default;" edge="1" parent="1" source="virza3_7X7Todxq-LX90-1" target="virza3_7X7Todxq-LX90-15">
          <mxGeometry width="50" height="50" relative="1" as="geometry">
            <mxPoint x="290" y="420" as="sourcePoint" />
            <mxPoint x="340" y="370" as="targetPoint" />
          </mxGeometry>
        </mxCell>
        <mxCell id="virza3_7X7Todxq-LX90-17" value="" style="image;sketch=0;aspect=fixed;html=1;points=[];align=center;fontSize=12;image=img/lib/mscae/Azure_Database_for_PostgreSQL_servers.svg;" vertex="1" parent="1">
          <mxGeometry x="650" y="40" width="83.6" height="110" as="geometry" />
        </mxCell>
        <mxCell id="virza3_7X7Todxq-LX90-18" value="&lt;font style=&quot;font-size: 23px;&quot;&gt;Profiles Database&lt;/font&gt;" style="text;html=1;align=center;verticalAlign=middle;whiteSpace=wrap;rounded=0;" vertex="1" parent="1">
          <mxGeometry x="631.8" y="687.5" width="60" height="30" as="geometry" />
        </mxCell>
        <mxCell id="virza3_7X7Todxq-LX90-19" value="&lt;font style=&quot;font-size: 23px;&quot;&gt;Swipes&lt;/font&gt;&lt;div&gt;&lt;font style=&quot;font-size: 23px;&quot;&gt;&amp;nbsp;Database&lt;/font&gt;&lt;/div&gt;" style="text;html=1;align=center;verticalAlign=middle;whiteSpace=wrap;rounded=0;" vertex="1" parent="1">
          <mxGeometry x="661.8" y="180" width="60" height="30" as="geometry" />
        </mxCell>
        <mxCell id="virza3_7X7Todxq-LX90-20" value="" style="shape=flexArrow;endArrow=classic;startArrow=classic;html=1;rounded=0;entryX=0.041;entryY=0.546;entryDx=0;entryDy=0;entryPerimeter=0;exitX=1;exitY=0.5;exitDx=0;exitDy=0;fillColor=default;" edge="1" parent="1" source="virza3_7X7Todxq-LX90-9" target="virza3_7X7Todxq-LX90-5">
          <mxGeometry width="100" height="100" relative="1" as="geometry">
            <mxPoint x="420" y="430" as="sourcePoint" />
            <mxPoint x="520" y="330" as="targetPoint" />
          </mxGeometry>
        </mxCell>
        <mxCell id="virza3_7X7Todxq-LX90-21" value="" style="shape=flexArrow;endArrow=classic;startArrow=classic;html=1;rounded=0;entryX=0.024;entryY=0.465;entryDx=0;entryDy=0;entryPerimeter=0;exitX=1;exitY=0.5;exitDx=0;exitDy=0;fillColor=default;" edge="1" parent="1" source="virza3_7X7Todxq-LX90-3" target="virza3_7X7Todxq-LX90-17">
          <mxGeometry width="100" height="100" relative="1" as="geometry">
            <mxPoint x="400" y="87" as="sourcePoint" />
            <mxPoint x="623" y="93" as="targetPoint" />
          </mxGeometry>
        </mxCell>
        <mxCell id="virza3_7X7Todxq-LX90-22" value="&lt;font style=&quot;font-size: 23px;&quot;&gt;RabbitMQ&lt;/font&gt;" style="rounded=0;whiteSpace=wrap;html=1;" vertex="1" parent="1">
          <mxGeometry x="480" y="-115" width="120" height="60" as="geometry" />
        </mxCell>
        <mxCell id="virza3_7X7Todxq-LX90-23" value="&lt;font style=&quot;font-size: 23px;&quot;&gt;Redis&lt;/font&gt;" style="rounded=0;whiteSpace=wrap;html=1;" vertex="1" parent="1">
          <mxGeometry x="413.99999999999994" y="290" width="120" height="60" as="geometry" />
        </mxCell>
        <mxCell id="virza3_7X7Todxq-LX90-24" value="" style="shape=flexArrow;endArrow=classic;startArrow=classic;html=1;rounded=0;exitX=1;exitY=0;exitDx=0;exitDy=0;fillColor=default;" edge="1" parent="1" source="virza3_7X7Todxq-LX90-9" target="virza3_7X7Todxq-LX90-12">
          <mxGeometry width="100" height="100" relative="1" as="geometry">
            <mxPoint x="490" y="510" as="sourcePoint" />
            <mxPoint x="590" y="410" as="targetPoint" />
          </mxGeometry>
        </mxCell>
        <mxCell id="virza3_7X7Todxq-LX90-25" value="" style="shape=step;perimeter=stepPerimeter;whiteSpace=wrap;html=1;fixedSize=1;rotation=-45;fillColor=default;" vertex="1" parent="1">
          <mxGeometry x="390" y="-25.000000000000007" width="100" height="25" as="geometry" />
        </mxCell>
        <mxCell id="virza3_7X7Todxq-LX90-26" value="" style="shape=flexArrow;endArrow=classic;html=1;rounded=0;exitX=1;exitY=0.5;exitDx=0;exitDy=0;entryX=0;entryY=0.5;entryDx=0;entryDy=0;fillColor=default;" edge="1" parent="1" source="virza3_7X7Todxq-LX90-22" target="virza3_7X7Todxq-LX90-7">
          <mxGeometry width="50" height="50" relative="1" as="geometry">
            <mxPoint x="681.8" y="-25" as="sourcePoint" />
            <mxPoint x="731.8" y="-75" as="targetPoint" />
          </mxGeometry>
        </mxCell>
        <mxCell id="virza3_7X7Todxq-LX90-27" value="" style="shape=flexArrow;endArrow=classic;html=1;rounded=0;exitX=0;exitY=0.5;exitDx=0;exitDy=0;entryX=1;entryY=0.5;entryDx=0;entryDy=0;fillColor=default;" edge="1" parent="1" source="virza3_7X7Todxq-LX90-11" target="virza3_7X7Todxq-LX90-23">
          <mxGeometry width="50" height="50" relative="1" as="geometry">
            <mxPoint x="590" y="320" as="sourcePoint" />
            <mxPoint x="640" y="270" as="targetPoint" />
          </mxGeometry>
        </mxCell>
        <mxCell id="virza3_7X7Todxq-LX90-28" value="" style="shape=flexArrow;endArrow=classic;html=1;rounded=0;exitX=0.75;exitY=1;exitDx=0;exitDy=0;entryX=0.5;entryY=0;entryDx=0;entryDy=0;fillColor=default;" edge="1" parent="1" source="virza3_7X7Todxq-LX90-3" target="virza3_7X7Todxq-LX90-23">
          <mxGeometry width="50" height="50" relative="1" as="geometry">
            <mxPoint x="480" y="210" as="sourcePoint" />
            <mxPoint x="530" y="160" as="targetPoint" />
          </mxGeometry>
        </mxCell>
        <mxCell id="virza3_7X7Todxq-LX90-30" value="" style="shape=offPageConnector;whiteSpace=wrap;html=1;" vertex="1" parent="1">
          <mxGeometry x="280" y="760" width="80" height="80" as="geometry" />
        </mxCell>
        <mxCell id="virza3_7X7Todxq-LX90-31" value="&lt;font style=&quot;font-size: 23px;&quot;&gt;ELK Stack&lt;/font&gt;" style="rounded=1;whiteSpace=wrap;html=1;" vertex="1" parent="1">
          <mxGeometry x="250" y="840" width="140" height="80" as="geometry" />
        </mxCell>
        <mxCell id="virza3_7X7Todxq-LX90-32" value="" style="shape=offPageConnector;whiteSpace=wrap;html=1;" vertex="1" parent="1">
          <mxGeometry x="781.8" y="760" width="80" height="80" as="geometry" />
        </mxCell>
        <mxCell id="virza3_7X7Todxq-LX90-33" value="&lt;font style=&quot;font-size: 23px;&quot;&gt;&lt;br&gt;Prometheus/&lt;br&gt;Grafana&lt;/font&gt;&lt;div&gt;&lt;font style=&quot;font-size: 23px;&quot;&gt;&lt;br&gt;&lt;/font&gt;&lt;/div&gt;" style="rounded=1;whiteSpace=wrap;html=1;" vertex="1" parent="1">
          <mxGeometry x="751.8" y="840" width="140" height="80" as="geometry" />
        </mxCell>
      </root>
    </mxGraphModel>
  </diagram>
</mxfile>
